<?xml version="1.0" encoding="utf-8"?>
<!-- Generator: Adobe Illustrator 22.0.1, SVG Export Plug-In . SVG Version: 6.00 Build 0)  -->
<svg version="1.1" id="Layer_1" xmlns="http://www.w3.org/2000/svg" xmlns:xlink="http://www.w3.org/1999/xlink" x="0px" y="0px"
	 viewBox="0 0 464 108" style="enable-background:new 0 0 464 108;" xml:space="preserve">
<style type="text/css">
	.st0{fill:url(#Logo-gradient_1_);}
</style>
<linearGradient id="Logo-gradient_1_" gradientUnits="userSpaceOnUse" x1="-71.5872" y1="448.0381" x2="-72.8117" y2="446.8117" gradientTransform="matrix(463.9999 0 0 -108 33798.9961 48367.0078)">
	<stop  offset="0" style="stop-color:#447EED"/>
	<stop  offset="1" style="stop-color:#17CFA4"/>
</linearGradient>
<path id="Logo-gradient" class="st0" d="M125.4,5.6c36.3-15.9,61.2,4.5,59.5,30.6c-1.5,24.3-13,42.1-27.1,55.2
	c-7.6,7.1-13.2,6.9-17.3,9.7c20-13.2,32.2-39.3,32.1-58.4c-0.2-23.7-17.3-38.4-47-24.9c-22.5,10.2-39.1,30-39.5,55.2
	c-0.4,22.2,15.9,31.4,38.4,23.3c21.2-9.8,20.7-20.6,20.7-24.7c-0.1-6.2-5-9-10.9-6.7c-6.6,2.6-10.3,8.2-10.2,14.2
	c0.2,7.3,9.1,6,9.1,6c-18.6,13.2-23.1-0.4-23.1-0.4L109.9,35c9.4-3.8,12.6,3.7,12.6,3.7l0.1,21.8c14.3-12.8,25.6-9,29.9-4.5
	c7.5,8.1,2.2,26.4-11.5,37.1c-3,2.4-5.6,4.1-7.7,5.7c-35.1,19.4-62.5,6.6-58.9-28.6C77.3,41.6,100.5,16.4,125.4,5.6z M19.9,46.9
	c8.1,0,13.3,1.4,15.9,3.9c2.5,2.7,3.7,8.3,3.7,16.9c0,9.5-1.2,15.9-3.6,18.8c-2.4,3-7.5,4.5-15.4,4.5c-8.5,0-14.1-1.4-16.6-4.1
	C1.2,84.1,0,78,0,68.6c0-9,1.2-14.9,3.7-17.6C6.2,48.3,11.6,46.9,19.9,46.9z M27.7,80.3c1.1-1.7,1.7-5.9,1.7-12.4
	c0-5.5-0.5-9-1.7-10.5c-1.2-1.6-3.8-2.3-7.9-2.3c-4.2,0-6.8,0.7-8,2.3c-1.2,1.6-1.7,5.1-1.7,10.8c0,6.5,0.5,10.5,1.6,12.2
	c1.1,1.7,3.8,2.5,8.1,2.5C24,82.9,26.6,82.1,27.7,80.3z M58,42.9v4.6l10.3-0.1v7.9H57.9v35.4h-10V55.4h-5.9v-7.9h5.9v-4.6
	c0-5.5,1.2-9.3,3.5-11.4c2.3-2.1,6.4-3.1,12.4-3.1c1.1,0,2.5,0,4.3,0.1v8.1c-1.3-0.3-2.5-0.5-3.5-0.5C60.2,36.1,58,38.4,58,42.9z
	 M215.4,71.6V49.1h10.1v41.4h-10.1l0.5-7.1l-0.2-0.1c-2,5.1-6.4,7.7-13.5,7.7c-9.6,0-14.3-4.7-14.3-14.1V49H198v25.4
	c0,3.5,0.5,5.8,1.5,7c1,1.1,3,1.7,6.2,1.7C212.1,83,215.4,79.2,215.4,71.6z M267.3,68c2.1,1.6,3.2,4.7,3.1,9.3c0,5-1.4,8.5-4.3,10.5
	c-2.9,1.9-8.1,2.9-15.6,2.9c-7.2,0-12.2-0.9-14.8-2.6c-2.6-1.8-3.9-5-3.9-9.9v-1.1h10.5c-0.2,0.6-0.3,1.1-0.3,1.4
	c-0.4,3.6,2.4,5.5,8.6,5.5c6.4,0,9.6-1.8,9.6-5.5c0-3.4-2-5.2-6-5.2c-9,0-14.9-0.9-17.8-2.6c-2.9-1.7-4.3-5.1-4.3-10.4
	c0-4.8,1.3-7.9,3.9-9.6c2.6-1.7,7.6-2.6,15-2.6c7,0,11.7,0.9,14.1,2.5c2.4,1.7,3.7,4.8,3.7,9.5H259c0-0.4-0.1-0.6-0.1-0.8
	c-0.2-1.9-0.7-3.2-1.7-3.7c-0.9-0.4-3.2-0.7-6.9-0.7c-5.3,0-7.9,1.7-7.9,5c0,2.3,0.4,3.6,1.3,4.1c0.9,0.4,4,0.8,9.4,1.1
	C260.4,65.6,265.1,66.5,267.3,68z M317.8,48.5c9.9,0,14.9,4.6,14.9,13.7v28.2h-10.1V63.9l-0.2-2.9c-0.5-3.1-3-4.7-7.4-4.7
	c-6.8,0-10.2,3.2-10.2,9.5v24.6h-10.1V49h10l-0.4,7h0.2C306.6,51,311,48.5,317.8,48.5z M359.1,48.5c7.5,0,12.5,1.3,15,4.1
	c2.6,2.7,3.8,8,3.8,15.9v3h-28.5c-0.1,1-0.1,1.6-0.1,1.8c0,4.1,0.6,6.8,1.9,8.1s3.8,2,7.6,2c3.8,0,6.2-0.4,7.2-1.2
	c1.2-0.8,1.7-2.5,1.7-5.1H378v1.6c0,8.1-6.2,12.2-18.5,12.2c-8.3,0-13.8-1.4-16.4-4.2s-3.8-8.7-3.8-17.8c0-8,1.3-13.5,4-16.2
	C346,49.9,351.3,48.5,359.1,48.5z M351.3,57.7c-1.2,1.1-1.7,3.8-1.7,7.8l18.3,0.1l-0.1-1.7c0-3.3-0.5-5.5-1.7-6.4
	c-1.2-1-3.7-1.5-7.5-1.5C354.9,55.9,352.5,56.5,351.3,57.7z M418.1,68c2.1,1.6,3.2,4.7,3.1,9.3c0,5-1.4,8.5-4.3,10.5
	c-2.9,1.9-8.1,2.9-15.6,2.9c-7.2,0-12.1-0.9-14.8-2.6c-2.6-1.8-3.9-5-3.9-9.9v-1.1h10.5c-0.2,0.6-0.3,1.1-0.3,1.4
	c-0.4,3.6,2.4,5.5,8.6,5.5c6.4,0,9.6-1.8,9.6-5.5c0-3.4-2-5.2-6-5.2c-9,0-14.9-0.9-17.8-2.6c-2.9-1.7-4.3-5.1-4.3-10.4
	c0-4.8,1.3-7.9,3.9-9.6s7.6-2.6,15-2.6c7,0,11.7,0.9,14.1,2.5c2.4,1.7,3.7,4.8,3.7,9.5h-9.8c0-0.4-0.1-0.6-0.1-0.8
	c-0.2-1.9-0.7-3.2-1.7-3.7c-0.9-0.4-3.2-0.7-6.9-0.7c-5.3,0-7.9,1.7-7.9,5c0,2.3,0.4,3.6,1.3,4.1c0.9,0.4,4,0.8,9.4,1.1
	C411.2,65.6,415.9,66.5,418.1,68z M460.9,68c2.1,1.6,3.2,4.7,3.1,9.3c0,5-1.4,8.5-4.3,10.5c-2.9,1.9-8.1,2.9-15.6,2.9
	c-7.2,0-12.1-0.9-14.8-2.6c-2.6-1.8-3.9-5-3.9-9.9v-1.1h10.5c-0.2,0.6-0.3,1.1-0.3,1.4c-0.4,3.6,2.4,5.5,8.6,5.5
	c6.4,0,9.6-1.8,9.6-5.5c0-3.4-2-5.2-6-5.2c-9,0-14.9-0.9-17.8-2.6c-2.9-1.7-4.3-5.1-4.3-10.4c0-4.8,1.3-7.9,3.9-9.6
	c2.6-1.7,7.6-2.6,15-2.6c7,0,11.7,0.9,14.1,2.5c2.4,1.7,3.7,4.8,3.7,9.5h-9.8c0-0.4-0.1-0.6-0.1-0.8c-0.2-1.9-0.7-3.2-1.7-3.7
	c-0.9-0.4-3.2-0.7-6.9-0.7c-5.3,0-7.9,1.7-7.9,5c0,2.3,0.4,3.6,1.3,4.1c0.9,0.4,4,0.8,9.4,1.1C454,65.6,458.7,66.5,460.9,68z
	 M276.7,90.8V49.1h9.8v41.7H276.7z"/>
</svg>
